<svg width="51" height="45" viewBox="0 0 51 45" fill="none" xmlns="http://www.w3.org/2000/svg">
<g id="icon">
<path id="Vector" d="M18.722 5.625C22.0217 5.625 25.1863 6.79898 27.5195 8.88867C29.8527 10.9784 31.1635 13.8126 31.1635 16.7679C31.1635 19.5279 30.0342 22.065 28.1776 24.0193L28.6944 24.4821H30.2065L39.7769 33.0536L36.9057 35.625L27.3354 27.0536V25.6993L26.8186 25.2364C24.6365 26.8993 21.8037 27.9107 18.722 27.9107C15.4223 27.9107 12.2578 26.7367 9.92455 24.647C7.59131 22.5574 6.28052 19.7231 6.28052 16.7679C6.28052 13.8126 7.59131 10.9784 9.92455 8.88867C12.2578 6.79898 15.4223 5.625 18.722 5.625ZM18.722 9.05357C13.9368 9.05357 10.1087 12.4821 10.1087 16.7679C10.1087 21.0536 13.9368 24.4821 18.722 24.4821C23.5072 24.4821 27.3354 21.0536 27.3354 16.7679C27.3354 12.4821 23.5072 9.05357 18.722 9.05357Z" fill="#F1F1F1"/>
</g>
</svg>
